<?xml version="1.0" encoding="UTF-8"?>
<svg version="1.1" xmlns="http://www.w3.org/2000/svg" width="512" height="512">
<path d="M0 0 C5.23206514 0.01403904 10.46411355 0.00736961 15.69619083 0.00386691 C24.47104841 0.00118042 33.24576798 0.01450809 42.02059269 0.03781772 C52.11535315 0.06445073 62.20988364 0.06615803 72.30466723 0.05442935 C82.08692014 0.04359337 91.86909118 0.04988193 101.65133762 0.06398463 C105.78320889 0.06969085 109.91501919 0.06970469 114.04689121 0.06491923 C118.92276163 0.06009246 123.79838506 0.07048288 128.67420864 0.09187388 C130.44650216 0.09736404 132.21881981 0.09798026 133.99111462 0.09292102 C149.70383626 0.05374281 165.17539292 1.68530495 180.28768253 6.19187045 C181.15135441 6.44533237 182.01502628 6.69879428 182.90487003 6.95993686 C211.66027454 15.73286133 237.74079712 32.93816749 252.72518253 59.50437045 C278.21035755 107.5295558 265.72518253 177.52441765 265.72518253 223.50437045 C127.12518253 223.50437045 -11.47481747 223.50437045 -154.27481747 223.50437045 C-154.27481747 71.80965421 -154.27481747 71.80965421 -129.27481747 42.50437045 C-128.70891903 41.80440951 -128.14302059 41.10444858 -127.55997372 40.3832767 C-96.67142415 3.0989804 -44.38864096 -0.14904463 0 0 Z M-61.27481747 21.50437045 C-62.34406554 21.79603626 -62.34406554 21.79603626 -63.43491459 22.09359431 C-88.48351321 29.09529261 -111.93244347 43.81693288 -125.27481747 66.50437045 C-147.62332231 107.79398477 -137.27481747 165.03767881 -137.27481747 206.50437045 C-9.89481747 206.50437045 117.48518253 206.50437045 248.72518253 206.50437045 C255.92400952 122.32276433 255.92400952 122.32276433 222.72518253 48.50437045 C202.19062499 28.65525016 171.26259891 17.34974925 142.81830692 17.35719943 C142.05197345 17.35352274 141.28563997 17.34984605 140.49608427 17.34605795 C137.94345576 17.33509797 135.39086807 17.33119029 132.83821964 17.3273685 C131.00098386 17.32109758 129.16374932 17.31445023 127.32651615 17.30745578 C121.30186174 17.28647158 115.27720727 17.27605235 109.25252628 17.2660892 C107.16938673 17.26203826 105.08624731 17.25792124 103.00310802 17.25373912 C93.20429604 17.2346926 83.40549152 17.22046558 73.6066646 17.21212715 C62.34657478 17.20238417 51.08668309 17.17613953 39.82666296 17.13562626 C31.09333994 17.10529831 22.36007314 17.09064223 13.62669855 17.08734614 C8.42588017 17.08501284 3.22527351 17.07628084 -1.97548771 17.05088496 C-31.891678 16.5672409 -31.891678 16.5672409 -61.27481747 21.50437045 Z " fill="#000000" transform="translate(200.27481746673584,288.4956295490265)"/>
<path d="M0 0 C0.68900391 0.21430664 1.37800781 0.42861328 2.08789062 0.64941406 C17.77192263 5.69858463 31.37561628 13.48793146 44 24 C44.87269531 24.70769531 45.74539063 25.41539063 46.64453125 26.14453125 C71.34857785 47.11379285 84.03445483 78.37389575 87 110 C89.2460653 140.98339398 78.80906744 171.97894004 58.8125 195.58203125 C56.58525403 198.09928321 54.30797946 200.5567252 52 203 C51.31421875 203.75023437 50.6284375 204.50046875 49.921875 205.2734375 C30.20945518 226.08099175 0.81941683 238.19037308 -27.59375 239.31640625 C-63.4416563 240.18290248 -94.31254352 229.57340274 -120.64086914 204.86352539 C-144.71525851 181.51708732 -156.60379441 150.16640166 -157.375 116.9375 C-156.63509974 87.63744971 -146.86388625 60.43841247 -128 38 C-127.29359375 37.12988281 -126.5871875 36.25976562 -125.859375 35.36328125 C-96.45105552 0.67235623 -43.16530632 -13.56918959 0 0 Z M-100 35 C-100.84691406 35.70898438 -101.69382813 36.41796875 -102.56640625 37.1484375 C-112.67022625 45.94107475 -120.42268297 55.32247527 -127 67 C-127.5465625 67.95648438 -128.093125 68.91296875 -128.65625 69.8984375 C-141.34886481 93.53519466 -142.82244294 121.30337508 -136.00390625 146.953125 C-127.37963377 175.00439189 -108.46075006 197.23257899 -82.69921875 211.1484375 C-59.38237836 223.15277714 -31.24018651 226.27146991 -6.00537109 218.64599609 C8.06140185 214.11462512 20.66895669 207.5429886 32 198 C33.18335938 197.03513672 33.18335938 197.03513672 34.390625 196.05078125 C55.99954414 177.66960946 67.14845206 151.82760595 70 124 C71.92711741 96.47835455 62.34416327 70.3795785 44.84765625 49.421875 C25.01293339 26.69386216 -0.72045196 14.31014805 -30.6484375 12.1875 C-55.377897 10.97027 -80.97769188 19.02989367 -100 35 Z " fill="#000000" transform="translate(291,4)"/>
</svg>
