<?xml version="1.0" encoding="UTF-8"?>
<svg version="1.1" xmlns="http://www.w3.org/2000/svg" width="48" height="48">
<path d="M0 0 C11.2793813 -1.08507112 11.2793813 -1.08507112 16 0 C19.07394065 2.56829243 20.58411156 5.28329285 22 9 C24.79283334 6.90537499 26.8959469 5.15261122 28.875 2.25 C31 0 31 0 34.75 -0.3125 C35.8225 -0.209375 36.895 -0.10625 38 0 C34.46386286 4.78775956 30.85516296 9.46451416 27 14 C28.55819409 18.68348623 31.15098327 22.21277809 34.0625 26.125 C38.87085811 32.61257434 38.87085811 32.61257434 40 36 C34.8401386 36.60467126 30.14250016 36.88216451 25 36 C21.44798801 33.15239545 19.21064763 29.95515232 17 26 C16.43152344 26.721875 15.86304688 27.44375 15.27734375 28.1875 C9.04570211 35.67795406 9.04570211 35.67795406 5.84375 36.6640625 C3.9375 36.625 3.9375 36.625 1 36 C4.80304814 30.80789528 8.76158542 25.84390238 13 21 C11.66756485 18.20110925 10.17598237 15.68238198 8.3984375 13.14453125 C7.90859375 12.44005859 7.41875 11.73558594 6.9140625 11.00976562 C6.40617188 10.28466797 5.89828125 9.55957031 5.375 8.8125 C4.35987847 7.36214512 3.34674253 5.91039775 2.3359375 4.45703125 C1.88782715 3.81741455 1.4397168 3.17779785 0.97802734 2.51879883 C0 1 0 1 0 0 Z M10 4 C11.27039516 7.47583153 12.73473163 10.27828583 14.93359375 13.25 C15.50013672 14.0234375 16.06667969 14.796875 16.65039062 15.59375 C17.24013672 16.3878125 17.82988281 17.181875 18.4375 18 C25.5390625 27.625 25.5390625 27.625 28 32 C28.99 31.67 29.98 31.34 31 31 C28.39703962 27.24916137 25.79242271 23.49947602 23.1875 19.75 C22.44951172 18.68652344 21.71152344 17.62304688 20.95117188 16.52734375 C20.23896484 15.50253906 19.52675781 14.47773438 18.79296875 13.421875 C18.1383667 12.47924805 17.48376465 11.53662109 16.80932617 10.56542969 C16.21224854 9.71883789 15.6151709 8.87224609 15 8 C14.46802002 7.22817383 13.93604004 6.45634766 13.38793945 5.66113281 C12.70090942 4.83887207 12.70090942 4.83887207 12 4 C11.34 4 10.68 4 10 4 Z " fill="#FFFFFF" transform="translate(4,6)"/>
</svg>
